# xmcd
#
# Track frame offsets:
# 150
# 11155
# 21962
# 51388
#
# Disc length: 1012 seconds
#
#
# Revision: 0
# Processed by: cddbd v1.5.1PL2 Copyright (c) Steve Scherf et al.
# Submitted via: FreeRIP 2.92 
#
DISCID=2f03f204
DTITLE=United Movement - Introducing the Exploration
DYEAR=2004
DGENRE=Noise
TTITLE0=Devotion
TTITLE1=Devil Gave Me A Chance
TTITLE2=Prepare Your Flesh
TTITLE3=Dark World Campaign
EXTD=
EXTT0=
EXTT1=
EXTT2=
EXTT3=
PLAYORDER=
